<svg width="83" height="83" viewBox="0 0 75 83" xmlns="http://www.w3.org/2000/svg" xmlns:xlink="http://www.w3.org/1999/xlink"><title>Логотип</title><defs><path id="a" d="M9.75 63.106v-38.25H30v38.25H9.75z"/></defs><g fill="none" fill-rule="evenodd"><rect fill="#222820" width="82.5" height="82.5" rx="41.25"/><text font-family=".SFNSDisplay, .SF NS Display" font-size="26.25" fill="#FFF"><tspan x="22" y="51">ЗМО</tspan></text><path d="M65.354 31.134c-.36 4.61.387 6.963 3.811 8.582 2.161 1.022 2.673 2.315 3.124 4.031-1.294-2.732-3.061-2.669-5.624-4.721-2.718-2.17-1.71-7.082-1.71-7.082s.341-.741.4-.81m8.131 22.61s-1.617-2.498-3.124-3.207c-4.99-2.346-5.724-4.948-5.724-4.948s2.996 2.93 5.422 4.131c2.989 1.483 3.426 4.023 3.426 4.023m-7.96-3.828s.839 1.598 2.153 3.308c.577.75 1.628 1.597 2.366 2.152 2.614 1.972 1.993 4.353 1.993 4.353s-.425-2.057-1.829-3.334c-1.261-1.147-2.469-1.823-3.326-3.257-1.646-2.752-1.356-3.222-1.356-3.222m.455 4.777s.22 3.164-3.282 5.422c-2.772 1.791-5.87 1.323-7.15.14 1.443.53 3.737 1.2 6.32-.112 3.341-1.703 4.112-5.45 4.112-5.45M68.572 24c-.183.118-.402 2.482-.935 3.235-1.488 2.113-3.843 3.504-5.185 7.502-1.333 3.997-.985 7.694.54 10.684 1.547 3.03 3.934 8.91-.619 12.518-3.936 3.12-4.745.815-8.373 1.828 4.346 5.3 12.208 1.079 13.114-3.025.296 1.302 1.197 2.74 2.36 2.844.956.086 2.423 1.19 2.633 1.79.417-.44 1.05-2.179 1.004-3.31-.07-1.693-.922-2.812-1.306-3.31-.386-.501.006-.702.47-.452.545.29 1.494.365 1.785.31.305-.058.204-1.282-.028-1.874-.327-.85.2-2.293-1.403-3.576-1.6-1.281-4.477-2.251-6.263-3.716-1.783-1.47-3.164-3.785-3.526-6.197-.104-.699.333-.628.496.169.165.797.952 3.04 2.11 4.357.592.67 1.66 1.114 1.718.206.056-.906.501-1.31.576-1.72.074-.407.056-.169.388.131.33.298.882.67 2.044 1.062 1.16.39 2.413 1.058 2.689 1.896.273.832.697.67.719-.5.034-1.861-.993-5.077-2.385-5.935-.663-.406-.31-.723.169-.497.479.224 1.03.41 1.528.389.5-.015.886-.438.243-.904-.645-.466-.974-1.317-.88-2.335.095-1.02-.288-2.817-1.558-3.802-.807-.622-1.73-1.605-1.45-2.334.324-.959.443-4.553-.674-5.434" fill="#D5B480"/><path d="M9.75 63.106v-38.25H30v38.25H9.75z"/><path d="M19.045 32.8s1.008 4.912-1.71 7.082c-2.562 2.052-4.33 1.99-5.624 4.721.452-1.716.963-3.009 3.124-4.03 3.424-1.62 4.171-3.973 3.81-8.584.06.07.4.81.4.81M13.94 50.577c2.426-1.201 5.422-4.133 5.422-4.133s-.734 2.602-5.724 4.95c-1.507.708-3.124 3.206-3.124 3.206s.437-2.541 3.426-4.023m3.177 3.417c-.857 1.434-2.065 2.109-3.326 3.256-1.403 1.277-1.83 3.334-1.83 3.334s-.62-2.381 1.994-4.352c.738-.556 1.79-1.402 2.367-2.152 1.313-1.71 2.151-3.309 2.151-3.309s.29.47-1.356 3.223m5.012 7.004c2.584 1.312 4.879.643 6.32.113-1.28 1.183-4.377 1.65-7.15-.14-3.5-2.259-3.28-5.423-3.28-5.423s.77 3.747 4.11 5.45M14.754 30.29c.28.728-.644 1.71-1.451 2.333-1.27.986-1.652 2.783-1.558 3.802.094 1.019-.235 1.87-.88 2.336-.643.465-.258.889.244.902.496.023 1.048-.164 1.528-.388.479-.226.831.09.167.497-1.39.859-2.418 4.074-2.384 5.935.022 1.169.446 1.333.72.5.275-.837 1.528-1.506 2.689-1.896 1.162-.391 1.713-.764 2.044-1.061.332-.3.313-.54.387-.132.075.41.52.814.576 1.72.057.908 1.126.463 1.718-.205 1.158-1.318 1.946-3.561 2.11-4.358.163-.797.6-.868.496-.169-.362 2.412-1.742 4.727-3.526 6.197-1.787 1.465-4.663 2.435-6.262 3.716-1.603 1.283-1.077 2.725-1.404 3.576-.232.593-.333 1.816-.028 1.874.291.055 1.24-.019 1.784-.31.465-.25.857-.049.47.452-.383.498-1.234 1.617-1.305 3.31-.047 1.131.587 2.87 1.004 3.31.21-.6 1.678-1.704 2.633-1.79 1.163-.105 2.064-1.542 2.36-2.844.906 4.104 8.769 8.325 13.114 3.025-3.628-1.012-4.437 1.291-8.373-1.828-4.553-3.608-2.166-9.489-.62-12.518 1.526-2.99 1.874-6.687.541-10.685-1.342-3.997-3.698-5.388-5.185-7.501-.532-.753-.751-3.117-.936-3.235-1.117.88-.998 4.475-.673 5.435" fill="#D5B480"/><path d="M21.75 20.25v30.169c0 8.034 19.874 13.331 19.874 13.331S61.5 58.453 61.5 50.419V20.25H21.75z" stroke="#D5B480" stroke-width="1.575"/><path d="M42 61.5c7.197-2.043 17.25-6.659 17.25-10.64V23.25h-34.5v27.61c0 3.981 10.052 8.597 17.25 10.64z" stroke="#FFF" stroke-width=".525"/><path d="M65.354 31.134c-.36 4.61.387 6.963 3.811 8.582 2.161 1.022 2.673 2.315 3.124 4.031-1.294-2.732-3.061-2.669-5.624-4.721-2.718-2.17-1.71-7.082-1.71-7.082s.341-.741.4-.81m8.131 22.61s-1.617-2.498-3.124-3.207c-4.99-2.346-5.724-4.948-5.724-4.948s2.996 2.93 5.422 4.131c2.989 1.483 3.426 4.023 3.426 4.023m-7.96-3.828s.839 1.598 2.153 3.308c.577.75 1.628 1.597 2.366 2.152 2.614 1.972 1.993 4.353 1.993 4.353s-.425-2.057-1.829-3.334c-1.261-1.147-2.469-1.823-3.326-3.257-1.646-2.752-1.356-3.222-1.356-3.222m.455 4.777s.22 3.164-3.282 5.422c-2.772 1.791-5.87 1.323-7.15.14 1.443.53 3.737 1.2 6.32-.112 3.341-1.703 4.112-5.45 4.112-5.45M68.572 24c-.183.118-.402 2.482-.935 3.235-1.488 2.113-3.843 3.504-5.185 7.502-1.333 3.997-.985 7.694.54 10.684 1.547 3.03 3.934 8.91-.619 12.518-3.936 3.12-4.745.815-8.373 1.828 4.346 5.3 12.208 1.079 13.114-3.025.296 1.302 1.197 2.74 2.36 2.844.956.086 2.423 1.19 2.633 1.79.417-.44 1.05-2.179 1.004-3.31-.07-1.693-.922-2.812-1.306-3.31-.386-.501.006-.702.47-.452.545.29 1.494.365 1.785.31.305-.058.204-1.282-.028-1.874-.327-.85.2-2.293-1.403-3.576-1.6-1.281-4.477-2.251-6.263-3.716-1.783-1.47-3.164-3.785-3.526-6.197-.104-.699.333-.628.496.169.165.797.952 3.04 2.11 4.357.592.67 1.66 1.114 1.718.206.056-.906.501-1.31.576-1.72.074-.407.056-.169.388.131.33.298.882.67 2.044 1.062 1.16.39 2.413 1.058 2.689 1.896.273.832.697.67.719-.5.034-1.861-.993-5.077-2.385-5.935-.663-.406-.31-.723.169-.497.479.224 1.03.41 1.528.389.5-.015.886-.438.243-.904-.645-.466-.974-1.317-.88-2.335.095-1.02-.288-2.817-1.558-3.802-.807-.622-1.73-1.605-1.45-2.334.324-.959.443-4.553-.674-5.434" fill="#DFD5C6"/><mask id="b" fill="#fff"><use xlink:href="#a"/></mask><path d="M19.045 32.8s1.008 4.912-1.71 7.082c-2.562 2.052-4.33 1.99-5.624 4.721.452-1.716.963-3.009 3.124-4.03 3.424-1.62 4.171-3.973 3.81-8.584.06.07.4.81.4.81M13.94 50.577c2.426-1.201 5.422-4.133 5.422-4.133s-.734 2.602-5.724 4.95c-1.507.708-3.124 3.206-3.124 3.206s.437-2.541 3.426-4.023m3.177 3.417c-.857 1.434-2.065 2.109-3.326 3.256-1.403 1.277-1.83 3.334-1.83 3.334s-.62-2.381 1.994-4.352c.738-.556 1.79-1.402 2.367-2.152 1.313-1.71 2.151-3.309 2.151-3.309s.29.47-1.356 3.223m5.012 7.004c2.584 1.312 4.879.643 6.32.113-1.28 1.183-4.377 1.65-7.15-.14-3.5-2.259-3.28-5.423-3.28-5.423s.77 3.747 4.11 5.45M14.754 30.29c.28.728-.644 1.71-1.451 2.333-1.27.986-1.652 2.783-1.558 3.802.094 1.019-.235 1.87-.88 2.336-.643.465-.258.889.244.902.496.023 1.048-.164 1.528-.388.479-.226.831.09.167.497-1.39.859-2.418 4.074-2.384 5.935.022 1.169.446 1.333.72.5.275-.837 1.528-1.506 2.689-1.896 1.162-.391 1.713-.764 2.044-1.061.332-.3.313-.54.387-.132.075.41.52.814.576 1.72.057.908 1.126.463 1.718-.205 1.158-1.318 1.946-3.561 2.11-4.358.163-.797.6-.868.496-.169-.362 2.412-1.742 4.727-3.526 6.197-1.787 1.465-4.663 2.435-6.262 3.716-1.603 1.283-1.077 2.725-1.404 3.576-.232.593-.333 1.816-.028 1.874.291.055 1.24-.019 1.784-.31.465-.25.857-.049.47.452-.383.498-1.234 1.617-1.305 3.31-.047 1.131.587 2.87 1.004 3.31.21-.6 1.678-1.704 2.633-1.79 1.163-.105 2.064-1.542 2.36-2.844.906 4.104 8.769 8.325 13.114 3.025-3.628-1.012-4.437 1.291-8.373-1.828-4.553-3.608-2.166-9.489-.62-12.518 1.526-2.99 1.874-6.687.541-10.685-1.342-3.997-3.698-5.388-5.185-7.501-.532-.753-.751-3.117-.936-3.235-1.117.88-.998 4.475-.673 5.435" fill="#DFD5C6" mask="url(#b)"/><path d="M21.75 20.25v30.169c0 8.034 19.874 13.331 19.874 13.331S61.5 58.453 61.5 50.419V20.25H21.75z" stroke="#D5B480" stroke-width="1.575" mask="url(#b)"/><path d="M42 61.5c7.197-2.043 17.25-6.659 17.25-10.64V23.25h-34.5v27.61c0 3.981 10.052 8.597 17.25 10.64z" stroke="#FFF" stroke-width=".525" mask="url(#b)"/></g></svg>