<?xml version="1.0" encoding="UTF-8"?>
<svg width="83px" height="83px" viewBox="0 0 75 83" version="1.1" xmlns="http://www.w3.org/2000/svg" xmlns:xlink="http://www.w3.org/1999/xlink">
    <!-- Generator: Sketch 46.2 (44496) - http://www.bohemiancoding.com/sketch -->
    <title>Логотип</title>
    <desc>Created with Sketch.</desc>
    <defs>
        <polygon id="path-1" points="9.75 63.1062 9.75 24.8562 30 24.8562 30 63.1062 9.75 63.1062"></polygon>
    </defs>
    <g id="Symbols" stroke="none" stroke-width="1" fill="none" fill-rule="evenodd">
        <g id="Логотип">
            <rect id="Rectangle" fill="#222820" x="0" y="0" width="82.5" height="82.5" rx="41.25"></rect>
            <text id="ЗМО" font-family=".SFNSDisplay, .SF NS Display" font-size="26.25" font-weight="normal" fill="#FFFFFF">
                <tspan x="22" y="51">ЗМО</tspan>
            </text>
            <path d="M65.3544828,31.1336044 C64.9945738,35.7432263 65.7413203,38.0966554 69.1653757,39.7163929 C71.3263835,40.7381534 71.838024,42.0313434 72.2885576,43.7472771 C70.9949565,41.0153027 69.2275183,41.0782202 66.6651731,39.0258595 C63.9474715,36.8565033 64.9552168,31.9437331 64.9552168,31.9437331 C64.9552168,31.9437331 65.2964831,31.2027617 65.3544828,31.1336044 M73.4863556,53.743371 C73.4863556,53.743371 71.8690953,51.2459074 70.362138,50.5371748 C65.3720899,48.1905055 64.6382897,45.588526 64.6382897,45.588526 C64.6382897,45.588526 67.6335615,48.5196528 70.0602287,49.7202864 C73.0487684,51.2027491 73.4863556,53.743371 73.4863556,53.743371 M65.5269284,49.9147589 C65.5269284,49.9147589 66.3648174,51.5131771 67.6786148,53.2233911 C68.2560228,53.9737221 69.3072679,54.8202494 70.0446931,55.3750679 C72.6593416,57.3468318 72.0384338,59.7278198 72.0384338,59.7278198 C72.0384338,59.7278198 71.6127572,57.6707792 70.2093709,56.3937086 C68.9478768,55.2466329 67.7402395,54.571179 66.8831899,53.1370744 C65.2374476,50.3848207 65.5269284,49.9147589 65.5269284,49.9147589 M65.9816049,54.6923343 C65.9816049,54.6923343 66.2016931,57.8564121 62.6999594,60.1136449 C59.9278831,61.9049757 56.8305939,61.4369937 55.5504571,60.2545594 C56.9926825,60.7849389 59.2867789,61.4541531 61.870874,60.1417238 C65.211037,58.4387896 65.9816049,54.6923343 65.9816049,54.6923343 M68.5729499,24 C68.3885936,24.1180354 68.1695411,26.4818641 67.6371864,27.234795 C66.1493898,29.3479934 63.7936686,30.7389397 62.4524249,34.7365452 C61.118949,38.7336308 61.4674652,42.431208 62.9920295,45.4210925 C64.5393794,48.4504954 66.9261719,54.3309483 62.3731931,57.9385689 C58.4374972,61.0584484 57.6275724,58.7544174 54,59.7668183 C58.3463547,65.0664535 66.2084252,60.8457766 67.1136353,56.7415751 C67.4103661,58.0436048 68.3109154,59.4813493 69.4734993,59.5863852 C70.429977,59.6716619 71.8965416,60.7755793 72.1073085,61.3756361 C72.5241815,60.9357331 73.157,59.1974403 73.1109109,58.066484 C73.0410005,56.3729094 72.1891295,55.2544326 71.8053991,54.7557719 C71.4190795,54.2550312 71.8110956,54.053799 72.2750934,54.3044293 C72.8198766,54.5945781 73.7685864,54.6694552 74.0601386,54.6138173 C74.3646372,54.5560996 74.2636555,53.3320669 74.0321745,52.7403297 C73.7048903,51.8891226 74.2315486,50.4466983 72.6287882,49.1639079 C71.0286171,47.8826774 68.1524519,46.9129148 66.3658531,45.4476114 C64.5828792,43.9771083 63.2022785,41.6631976 62.8402981,39.2510108 C62.7356914,38.5521578 63.1727608,38.6228751 63.3364029,39.4200043 C63.5005629,40.2171335 64.287702,42.4592869 65.4466609,43.777436 C66.0375332,44.4461301 67.1069032,44.8912329 67.1638672,43.982828 C67.2203134,43.077023 67.6651506,42.6724787 67.7397217,42.2627345 C67.8137749,41.8555902 67.79565,42.094261 68.1275949,42.3942894 C68.4574683,42.6922379 69.0095015,43.0645435 70.1715675,43.4555684 C71.3315621,43.8455533 72.5852884,44.5142475 72.8607871,45.3519351 C73.1342144,46.184423 73.5583374,46.0211493 73.5795695,44.8522344 C73.6142657,42.9907064 72.5868419,39.7751506 71.1953663,38.9171837 C70.5319944,38.5110794 70.8846534,38.1944116 71.3636691,38.4200829 C71.8426847,38.6436743 72.3947178,38.8308671 72.8918584,38.8085079 C73.392106,38.7944685 73.7779078,38.3706848 73.1352501,37.9053028 C72.4900031,37.4394008 72.1611653,36.5881937 72.2554149,35.569553 C72.3496645,34.5509124 71.9674877,32.7533418 70.6966722,31.7684999 C69.8903724,31.145564 68.9675552,30.1628019 69.2461611,29.4343101 C69.5713738,28.4754671 69.6904804,24.880846 68.5729499,24" id="Fill-1" fill="#D5B480"></path>
            <polygon id="Clip-4" points="9.75 63.1062 9.75 24.8562 30 24.8562 30 63.1062 9.75 63.1062"></polygon>
            <path d="M19.0449968,32.7994894 C19.0449968,32.7994894 20.0527701,37.7123068 17.334993,39.8816838 C14.7730945,41.9340642 13.0056072,41.871146 11.7114523,44.6031467 C12.1625163,42.8871965 12.6736531,41.5939941 14.8347209,40.5722237 C18.2588715,38.9524708 19.0061566,36.5995391 18.6457197,31.9893529 C18.7042389,32.0585109 19.0449968,32.7994894 19.0449968,32.7994894 M13.9398431,50.5767333 C16.3660599,49.3755682 19.3619327,46.4444133 19.3619327,46.4444133 C19.3619327,46.4444133 18.6275943,49.0464177 13.6384433,51.3936296 C12.1309263,52.101849 10.513621,54.5998565 10.513621,54.5998565 C10.513621,54.5998565 10.9512204,52.0586903 13.9398431,50.5767333 M17.1169701,53.9935541 C16.2598967,55.4276725 15.0517081,56.1026129 13.7906968,57.2496996 C12.3877894,58.5273025 11.9615831,60.5843628 11.9615831,60.5843628 C11.9615831,60.5843628 11.3401401,58.2028319 13.9553792,56.2315691 C14.6933426,55.6762253 15.7440991,54.8296898 16.3215231,54.0798716 C17.6353571,52.3696412 18.4732693,50.7712077 18.4732693,50.7712077 C18.4732693,50.7712077 18.7627581,51.241274 17.1169701,53.9935541 M22.1289074,60.9977508 C24.7130742,62.3101927 27.0077523,61.6414921 28.4494999,61.1105875 C27.1693274,62.2935531 24.0724701,62.7610196 21.2997989,60.9701916 C17.7990037,58.7124171 18.0190981,55.548309 18.0190981,55.548309 C18.0190981,55.548309 18.7891695,59.2948002 22.1289074,60.9977508 M14.7539333,30.2905622 C15.0330648,31.0185411 14.1097042,32.0018326 13.3028641,32.6242545 C12.0325311,33.6096259 11.6508616,35.4072137 11.7445959,36.4258641 C11.839366,37.4445145 11.5100012,38.2952098 10.8647363,38.7616363 C10.2220607,39.2265028 10.6073553,39.6508105 11.1086526,39.6643301 C11.6052891,39.6866895 12.1573376,39.5000149 12.6368844,39.2759014 C13.1159133,39.0502279 13.4680643,39.3668987 12.8041561,39.7730069 C11.4136776,40.631502 10.3857074,43.8465687 10.4204046,45.7081146 C10.4416372,46.8770407 10.865772,47.040836 11.1392069,46.2078201 C11.4152312,45.3706444 12.6684744,44.7019439 13.8290191,44.3119552 C14.9911174,43.9209265 15.5421301,43.5480973 15.8725306,43.250666 C16.2050026,42.9501147 16.1858414,42.7114416 16.2604146,43.1191098 C16.3349877,43.5288579 16.7803552,43.9328862 16.836285,44.8386999 C16.8932506,45.7471135 17.9621325,45.3020064 18.5540569,44.6338258 C19.7120122,43.3156641 20.4996911,41.0729692 20.6643735,40.2758323 C20.8269844,39.4792155 21.2645838,39.4079775 21.1599743,40.1073572 C20.7979837,42.5190472 19.4178626,44.8335 17.6343213,46.3040173 C15.847155,47.7688148 12.9714278,48.7385867 11.3717302,50.0198295 C9.76892526,51.3026322 10.2950803,52.7450703 9.96830486,53.5962856 C9.7362995,54.1885484 9.63531502,55.4120729 9.93982206,55.4703112 C10.2313824,55.5254296 11.1796007,55.4510718 11.724399,55.1604002 C12.1889276,54.9097675 12.5809545,55.1110017 12.1946242,55.6117471 C11.8108832,56.1104126 10.9595063,57.2289002 10.8890761,58.922491 C10.8424679,60.0534582 11.4758218,61.7922877 11.8927065,62.2321949 C12.1034792,61.6316124 13.5706024,60.5276844 14.5260709,60.4424069 C15.6892049,60.3373699 16.5897793,58.8996117 16.8860005,57.5975695 C17.7917535,61.7018103 25.6545603,65.9225278 30,60.6233616 C26.3723269,59.610951 25.5634153,61.9144841 21.6265743,58.7945747 C17.073987,55.1874394 19.4608457,49.3064102 21.0077207,46.2769781 C22.5328453,43.2870649 22.8808533,39.5899723 21.5483761,35.5923283 C20.2060593,31.5952044 17.8502728,30.2042447 16.3629527,28.0905061 C15.8311011,27.337568 15.6115246,24.9737166 15.4271632,24.8562 C14.3096016,25.7365344 14.4287115,29.3311901 14.7539333,30.2905622" id="Fill-3" fill="#D5B480"></path>
            <path d="M21.75,20.25 L21.75,50.4187046 C21.75,58.4533964 41.6244792,63.75 41.6244792,63.75 C41.6244792,63.75 61.5,58.4533964 61.5,50.4187046 L61.5,20.25 L21.75,20.25 Z" id="Stroke-6" stroke="#D5B480" stroke-width="1.57499997"></path>
            <path d="M41.9994798,61.5 C49.1974263,59.456992 59.25,54.841074 59.25,50.859989 L59.25,23.25 L24.75,23.25 L24.75,50.859989 C24.75,54.841074 34.8015333,59.456992 41.9994798,61.5 Z" id="Stroke-8" stroke="#FFFFFF" stroke-width="0.524999991"></path>
            <path d="M65.3544828,31.1336044 C64.9945738,35.7432263 65.7413203,38.0966554 69.1653757,39.7163929 C71.3263835,40.7381534 71.838024,42.0313434 72.2885576,43.7472771 C70.9949565,41.0153027 69.2275183,41.0782202 66.6651731,39.0258595 C63.9474715,36.8565033 64.9552168,31.9437331 64.9552168,31.9437331 C64.9552168,31.9437331 65.2964831,31.2027617 65.3544828,31.1336044 M73.4863556,53.743371 C73.4863556,53.743371 71.8690953,51.2459074 70.362138,50.5371748 C65.3720899,48.1905055 64.6382897,45.588526 64.6382897,45.588526 C64.6382897,45.588526 67.6335615,48.5196528 70.0602287,49.7202864 C73.0487684,51.2027491 73.4863556,53.743371 73.4863556,53.743371 M65.5269284,49.9147589 C65.5269284,49.9147589 66.3648174,51.5131771 67.6786148,53.2233911 C68.2560228,53.9737221 69.3072679,54.8202494 70.0446931,55.3750679 C72.6593416,57.3468318 72.0384338,59.7278198 72.0384338,59.7278198 C72.0384338,59.7278198 71.6127572,57.6707792 70.2093709,56.3937086 C68.9478768,55.2466329 67.7402395,54.571179 66.8831899,53.1370744 C65.2374476,50.3848207 65.5269284,49.9147589 65.5269284,49.9147589 M65.9816049,54.6923343 C65.9816049,54.6923343 66.2016931,57.8564121 62.6999594,60.1136449 C59.9278831,61.9049757 56.8305939,61.4369937 55.5504571,60.2545594 C56.9926825,60.7849389 59.2867789,61.4541531 61.870874,60.1417238 C65.211037,58.4387896 65.9816049,54.6923343 65.9816049,54.6923343 M68.5729499,24 C68.3885936,24.1180354 68.1695411,26.4818641 67.6371864,27.234795 C66.1493898,29.3479934 63.7936686,30.7389397 62.4524249,34.7365452 C61.118949,38.7336308 61.4674652,42.431208 62.9920295,45.4210925 C64.5393794,48.4504954 66.9261719,54.3309483 62.3731931,57.9385689 C58.4374972,61.0584484 57.6275724,58.7544174 54,59.7668183 C58.3463547,65.0664535 66.2084252,60.8457766 67.1136353,56.7415751 C67.4103661,58.0436048 68.3109154,59.4813493 69.4734993,59.5863852 C70.429977,59.6716619 71.8965416,60.7755793 72.1073085,61.3756361 C72.5241815,60.9357331 73.157,59.1974403 73.1109109,58.066484 C73.0410005,56.3729094 72.1891295,55.2544326 71.8053991,54.7557719 C71.4190795,54.2550312 71.8110956,54.053799 72.2750934,54.3044293 C72.8198766,54.5945781 73.7685864,54.6694552 74.0601386,54.6138173 C74.3646372,54.5560996 74.2636555,53.3320669 74.0321745,52.7403297 C73.7048903,51.8891226 74.2315486,50.4466983 72.6287882,49.1639079 C71.0286171,47.8826774 68.1524519,46.9129148 66.3658531,45.4476114 C64.5828792,43.9771083 63.2022785,41.6631976 62.8402981,39.2510108 C62.7356914,38.5521578 63.1727608,38.6228751 63.3364029,39.4200043 C63.5005629,40.2171335 64.287702,42.4592869 65.4466609,43.777436 C66.0375332,44.4461301 67.1069032,44.8912329 67.1638672,43.982828 C67.2203134,43.077023 67.6651506,42.6724787 67.7397217,42.2627345 C67.8137749,41.8555902 67.79565,42.094261 68.1275949,42.3942894 C68.4574683,42.6922379 69.0095015,43.0645435 70.1715675,43.4555684 C71.3315621,43.8455533 72.5852884,44.5142475 72.8607871,45.3519351 C73.1342144,46.184423 73.5583374,46.0211493 73.5795695,44.8522344 C73.6142657,42.9907064 72.5868419,39.7751506 71.1953663,38.9171837 C70.5319944,38.5110794 70.8846534,38.1944116 71.3636691,38.4200829 C71.8426847,38.6436743 72.3947178,38.8308671 72.8918584,38.8085079 C73.392106,38.7944685 73.7779078,38.3706848 73.1352501,37.9053028 C72.4900031,37.4394008 72.1611653,36.5881937 72.2554149,35.569553 C72.3496645,34.5509124 71.9674877,32.7533418 70.6966722,31.7684999 C69.8903724,31.145564 68.9675552,30.1628019 69.2461611,29.4343101 C69.5713738,28.4754671 69.6904804,24.880846 68.5729499,24" id="Fill-1" fill="#DFD5C6"></path>
            <mask id="mask-2" fill="white">
                <use xlink:href="#path-1"></use>
            </mask>
            <g id="Clip-4"></g>
            <path d="M19.0449968,32.7994894 C19.0449968,32.7994894 20.0527701,37.7123068 17.334993,39.8816838 C14.7730945,41.9340642 13.0056072,41.871146 11.7114523,44.6031467 C12.1625163,42.8871965 12.6736531,41.5939941 14.8347209,40.5722237 C18.2588715,38.9524708 19.0061566,36.5995391 18.6457197,31.9893529 C18.7042389,32.0585109 19.0449968,32.7994894 19.0449968,32.7994894 M13.9398431,50.5767333 C16.3660599,49.3755682 19.3619327,46.4444133 19.3619327,46.4444133 C19.3619327,46.4444133 18.6275943,49.0464177 13.6384433,51.3936296 C12.1309263,52.101849 10.513621,54.5998565 10.513621,54.5998565 C10.513621,54.5998565 10.9512204,52.0586903 13.9398431,50.5767333 M17.1169701,53.9935541 C16.2598967,55.4276725 15.0517081,56.1026129 13.7906968,57.2496996 C12.3877894,58.5273025 11.9615831,60.5843628 11.9615831,60.5843628 C11.9615831,60.5843628 11.3401401,58.2028319 13.9553792,56.2315691 C14.6933426,55.6762253 15.7440991,54.8296898 16.3215231,54.0798716 C17.6353571,52.3696412 18.4732693,50.7712077 18.4732693,50.7712077 C18.4732693,50.7712077 18.7627581,51.241274 17.1169701,53.9935541 M22.1289074,60.9977508 C24.7130742,62.3101927 27.0077523,61.6414921 28.4494999,61.1105875 C27.1693274,62.2935531 24.0724701,62.7610196 21.2997989,60.9701916 C17.7990037,58.7124171 18.0190981,55.548309 18.0190981,55.548309 C18.0190981,55.548309 18.7891695,59.2948002 22.1289074,60.9977508 M14.7539333,30.2905622 C15.0330648,31.0185411 14.1097042,32.0018326 13.3028641,32.6242545 C12.0325311,33.6096259 11.6508616,35.4072137 11.7445959,36.4258641 C11.839366,37.4445145 11.5100012,38.2952098 10.8647363,38.7616363 C10.2220607,39.2265028 10.6073553,39.6508105 11.1086526,39.6643301 C11.6052891,39.6866895 12.1573376,39.5000149 12.6368844,39.2759014 C13.1159133,39.0502279 13.4680643,39.3668987 12.8041561,39.7730069 C11.4136776,40.631502 10.3857074,43.8465687 10.4204046,45.7081146 C10.4416372,46.8770407 10.865772,47.040836 11.1392069,46.2078201 C11.4152312,45.3706444 12.6684744,44.7019439 13.8290191,44.3119552 C14.9911174,43.9209265 15.5421301,43.5480973 15.8725306,43.250666 C16.2050026,42.9501147 16.1858414,42.7114416 16.2604146,43.1191098 C16.3349877,43.5288579 16.7803552,43.9328862 16.836285,44.8386999 C16.8932506,45.7471135 17.9621325,45.3020064 18.5540569,44.6338258 C19.7120122,43.3156641 20.4996911,41.0729692 20.6643735,40.2758323 C20.8269844,39.4792155 21.2645838,39.4079775 21.1599743,40.1073572 C20.7979837,42.5190472 19.4178626,44.8335 17.6343213,46.3040173 C15.847155,47.7688148 12.9714278,48.7385867 11.3717302,50.0198295 C9.76892526,51.3026322 10.2950803,52.7450703 9.96830486,53.5962856 C9.7362995,54.1885484 9.63531502,55.4120729 9.93982206,55.4703112 C10.2313824,55.5254296 11.1796007,55.4510718 11.724399,55.1604002 C12.1889276,54.9097675 12.5809545,55.1110017 12.1946242,55.6117471 C11.8108832,56.1104126 10.9595063,57.2289002 10.8890761,58.922491 C10.8424679,60.0534582 11.4758218,61.7922877 11.8927065,62.2321949 C12.1034792,61.6316124 13.5706024,60.5276844 14.5260709,60.4424069 C15.6892049,60.3373699 16.5897793,58.8996117 16.8860005,57.5975695 C17.7917535,61.7018103 25.6545603,65.9225278 30,60.6233616 C26.3723269,59.610951 25.5634153,61.9144841 21.6265743,58.7945747 C17.073987,55.1874394 19.4608457,49.3064102 21.0077207,46.2769781 C22.5328453,43.2870649 22.8808533,39.5899723 21.5483761,35.5923283 C20.2060593,31.5952044 17.8502728,30.2042447 16.3629527,28.0905061 C15.8311011,27.337568 15.6115246,24.9737166 15.4271632,24.8562 C14.3096016,25.7365344 14.4287115,29.3311901 14.7539333,30.2905622" id="Fill-3" fill="#DFD5C6" mask="url(#mask-2)"></path>
            <path d="M21.75,20.25 L21.75,50.4187046 C21.75,58.4533964 41.6244792,63.75 41.6244792,63.75 C41.6244792,63.75 61.5,58.4533964 61.5,50.4187046 L61.5,20.25 L21.75,20.25 Z" id="Stroke-6" stroke="#D5B480" stroke-width="1.57499997" mask="url(#mask-2)"></path>
            <path d="M41.9994798,61.5 C49.1974263,59.456992 59.25,54.841074 59.25,50.859989 L59.25,23.25 L24.75,23.25 L24.75,50.859989 C24.75,54.841074 34.8015333,59.456992 41.9994798,61.5 Z" id="Stroke-8" stroke="#FFFFFF" stroke-width="0.524999991" mask="url(#mask-2)"></path>
        </g>
    </g>
</svg>